<?xml version="1.0" encoding="iso-8859-1"?>
<!-- Uploaded to: SVG Repo, www.svgrepo.com, Generator: SVG Repo Mixer Tools -->
<svg height="800px" width="800px" version="1.1" id="Capa_1" xmlns="http://www.w3.org/2000/svg" xmlns:xlink="http://www.w3.org/1999/xlink" 
	 viewBox="0 0 263.055 263.055" xml:space="preserve">
<g>
	<g>
		<path style="fill:#003366;" d="M72.411,246.52h118.735c3.008,0,5.439-2.431,5.439-5.439v-12.488c0-3.008-2.431-5.439-5.439-5.439
			s-5.439,2.431-5.439,5.439v7.049H77.85v-8.964c0-3.008-2.431-5.439-5.439-5.439s-5.439,2.431-5.439,5.439v14.403
			C66.972,244.083,69.403,246.52,72.411,246.52z"/>
		<path style="fill:#003366;" d="M6.011,203.475c-0.386,0.908-0.609,1.876-0.462,2.877l4.389,29.714
			c2.241,15.131,15.98,26.989,31.275,26.989h180.61c15.295,0,29.034-11.857,31.275-26.989l4.395-29.714
			c0.027-0.196-0.049-0.375-0.038-0.571c0.016-0.169,0.098-0.31,0.098-0.479v-15.697c0-0.125-0.065-0.234-0.071-0.359
			c-0.005-0.125,0.044-0.239,0.022-0.364L232.749,4.716C232.39,2.012,230.084,0,227.359,0H37.057c-2.714,0-5.015,2.002-5.385,4.688
			L6.066,188.855c-0.016,0.131,0.033,0.245,0.022,0.375c-0.011,0.131-0.076,0.245-0.076,0.375V203.475z M246.668,199.858H16.889
			v-4.819h229.779C246.668,195.039,246.668,199.858,246.668,199.858z M242.333,234.473c-1.42,9.6-10.813,17.704-20.511,17.704
			H41.207c-9.698,0-19.097-8.104-20.511-17.704l-3.47-23.475h228.571L242.333,234.473z M41.789,10.873h180.805l23.29,173.289H17.694
			L41.789,10.873z"/>
	</g>
</g>
</svg>