<?xml version="1.0" encoding="iso-8859-1"?>
<!-- Uploaded to: SVG Repo, www.svgrepo.com, Generator: SVG Repo Mixer Tools -->
<svg height="800px" width="800px" version="1.1" id="Capa_1" xmlns="http://www.w3.org/2000/svg" xmlns:xlink="http://www.w3.org/1999/xlink" 
	 viewBox="0 0 409.794 409.794" xml:space="preserve">
<g>
	<path style="fill:#010002;" d="M387.367,176.731c3.861-2.284,5.154-7.267,2.869-11.128L329.955,63.46
		c-1.463-2.479-4.129-3.999-6.999-3.999H96.876c-2.943,0-5.666,1.593-7.096,4.17L32.848,165.774
		c-2.195,3.918-0.788,8.876,3.138,11.055c1.252,0.699,2.609,1.032,3.95,1.032c2.853,0,5.617-1.496,7.104-4.17l54.616-97.982h216.651
		l57.924,98.144C378.515,177.723,383.498,179.007,387.367,176.731z"/>
	<path style="fill:#010002;" d="M401.665,196.768H301.196c-4.495,0-8.129,3.633-8.129,8.129s3.633,8.129,8.129,8.129h92.341v121.059
		H16.257V219.715h83.139c4.495,0,8.129-3.633,8.129-8.129s-3.633-8.129-8.129-8.129H8.129c-4.495,0-8.129,3.633-8.129,8.129v130.618
		c0,4.495,3.633,8.129,8.129,8.129h393.537c4.495,0,8.129-3.633,8.129-8.129V204.897
		C409.794,200.402,406.152,196.768,401.665,196.768z"/>
	<path style="fill:#010002;" d="M258.277,202.41l-12.42,38.741h-76.254l-21.151-40.049c-2.089-3.967-7.015-5.511-10.982-3.39
		c-3.967,2.097-5.495,7.007-3.39,10.982l23.443,44.382c1.406,2.666,4.17,4.333,7.186,4.333h87.081c3.536,0,6.657-2.276,7.738-5.641
		l14.233-44.382c1.374-4.276-0.984-8.852-5.251-10.226C264.211,195.793,259.643,198.15,258.277,202.41z"/>
	<path style="fill:#010002;" d="M333.011,168.652c2.04,3.991,6.95,5.576,10.949,3.503c3.991-2.057,5.56-6.958,3.503-10.949
		l-11.51-22.354c-1.39-2.707-4.186-4.406-7.226-4.406H98.421c-3.26,0-6.21,1.951-7.486,4.95L81.44,161.75
		c-1.756,4.129,0.171,8.901,4.308,10.665c1.032,0.439,2.113,0.642,3.178,0.642c3.162,0,6.17-1.861,7.486-4.95l7.389-17.403h219.959
		L333.011,168.652z"/>
	<path style="fill:#010002;" d="M107.216,126.79c3.162,0,6.17-1.861,7.486-4.95l6.706-15.834h178l8.568,16.428
		c2.073,3.967,6.95,5.536,10.974,3.447c3.975-2.081,5.519-6.982,3.447-10.974l-10.852-20.801c-1.406-2.682-4.178-4.365-7.21-4.365
		H116.027c-3.26,0-6.21,1.951-7.486,4.95l-8.811,20.793c-1.756,4.137,0.187,8.909,4.308,10.665
		C105.078,126.578,106.151,126.79,107.216,126.79z"/>
</g>
</svg>